# MagicaVoxel @ Ephtracy

# group
o 

# material
mtllib rune1-place-0.mtl
usemtl palette

# normals
vn -1 0 0
vn 1 0 0
vn 0 0 1
vn 0 0 -1
vn 0 -1 0
vn 0 1 0

# texcoords
vt 0.0449219 0.5
vt 0.982422 0.5
vt 0.986328 0.5

# verts
v -0.8 0 0.8
v -0.8 0 -1
v -0.8 0.4 0.8
v -0.8 0.4 -1
v -0.1 0.3 0.7
v -0.1 0.3 0.1
v -0.1 0.3 -0.7
v -0.1 0.3 -0.9
v -0.1 0.4 0.7
v -0.1 0.4 0.1
v -0.1 0.4 -0.7
v -0.1 0.4 -0.9
v 5.96046e-008 0.3 0.1
v 5.96046e-008 0.3 -5.96046e-008
v 5.96046e-008 0.4 0.1
v 5.96046e-008 0.4 -5.96046e-008
v 0.1 0.3 -5.96046e-008
v 0.1 0.3 -0.2
v 0.1 0.3 -0.7
v 0.1 0.3 -0.8
v 0.1 0.4 -5.96046e-008
v 0.1 0.4 -0.2
v 0.1 0.4 -0.7
v 0.1 0.4 -0.8
v 0.2 0.3 -0.2
v 0.2 0.3 -0.3
v 0.2 0.3 -0.5
v 0.2 0.3 -0.7
v 0.2 0.4 -0.2
v 0.2 0.4 -0.3
v 0.2 0.4 -0.5
v 0.2 0.4 -0.7
v 0.3 0.3 -0.3
v 0.3 0.3 -0.5
v 0.3 0.4 -0.3
v 0.3 0.4 -0.5
v -0.4 0.3 0.7
v -0.4 0.3 -0.9
v -0.4 0.4 0.7
v -0.4 0.4 -0.9
v 5.96046e-008 0.3 -0.7
v 5.96046e-008 0.3 -0.8
v 5.96046e-008 0.4 -0.7
v 5.96046e-008 0.4 -0.8
v 0.5 0 0.8
v 0.5 0 -1
v 0.5 0.4 0.8
v 0.5 0.4 -1
v -0.8 0 0.8
v -0.8 0.4 0.8
v 0.5 0 0.8
v 0.5 0.4 0.8
v 0.2 0.3 -0.5
v 0.2 0.4 -0.5
v 0.3 0.3 -0.5
v 0.3 0.4 -0.5
v -0.1 0.3 -0.7
v -0.1 0.4 -0.7
v 5.96046e-008 0.3 -0.7
v 5.96046e-008 0.4 -0.7
v 0.1 0.3 -0.7
v 0.1 0.4 -0.7
v 0.2 0.3 -0.7
v 0.2 0.4 -0.7
v 5.96046e-008 0.3 -0.8
v 5.96046e-008 0.4 -0.8
v 0.1 0.3 -0.8
v 0.1 0.4 -0.8
v -0.4 0.3 -0.9
v -0.4 0.4 -0.9
v -0.1 0.3 -0.9
v -0.1 0.4 -0.9
v -0.4 0.3 0.7
v -0.4 0.4 0.7
v -0.1 0.3 0.7
v -0.1 0.4 0.7
v -0.1 0.3 0.1
v -0.1 0.4 0.1
v 5.96046e-008 0.3 0.1
v 5.96046e-008 0.4 0.1
v 5.96046e-008 0.3 -5.96046e-008
v 5.96046e-008 0.4 -5.96046e-008
v 0.1 0.3 -5.96046e-008
v 0.1 0.4 -5.96046e-008
v 0.1 0.3 -0.2
v 0.1 0.4 -0.2
v 0.2 0.3 -0.2
v 0.2 0.4 -0.2
v 0.2 0.3 -0.3
v 0.2 0.4 -0.3
v 0.3 0.3 -0.3
v 0.3 0.4 -0.3
v -0.8 0 -1
v -0.8 0.4 -1
v 0.5 0 -1
v 0.5 0.4 -1
v -0.8 0 0.8
v 0.5 0 0.8
v -0.3 0 0.6
v -0.2 0 0.6
v -0.2 0 -5.96046e-008
v 5.96046e-008 0 -5.96046e-008
v -0.2 0 -0.1
v -0.1 0 -0.1
v -0.1 0 -0.2
v 5.96046e-008 0 -0.2
v 0.1 0 -0.2
v -0.2 0 -0.3
v -0.1 0 -0.3
v 5.96046e-008 0 -0.3
v 0.1 0 -0.3
v 0.2 0 -0.3
v -0.2 0 -0.5
v -0.1 0 -0.5
v 5.96046e-008 0 -0.5
v 0.1 0 -0.5
v 0.2 0 -0.5
v -0.1 0 -0.6
v 5.96046e-008 0 -0.6
v 0.1 0 -0.6
v 5.96046e-008 0 -0.7
v 0.1 0 -0.7
v -0.3 0 -0.8
v -0.2 0 -0.8
v -0.8 0 -1
v 0.5 0 -1
v -0.4 0.3 0.7
v -0.1 0.3 0.7
v -0.3 0.3 0.6
v -0.2 0.3 0.6
v -0.1 0.3 0.1
v 5.96046e-008 0.3 0.1
v -0.2 0.3 -5.96046e-008
v 5.96046e-008 0.3 -5.96046e-008
v 0.1 0.3 -5.96046e-008
v -0.2 0.3 -0.1
v -0.1 0.3 -0.1
v -0.1 0.3 -0.2
v 5.96046e-008 0.3 -0.2
v 0.1 0.3 -0.2
v 0.2 0.3 -0.2
v -0.2 0.3 -0.3
v -0.1 0.3 -0.3
v 5.96046e-008 0.3 -0.3
v 0.1 0.3 -0.3
v 0.2 0.3 -0.3
v 0.3 0.3 -0.3
v -0.2 0.3 -0.5
v -0.1 0.3 -0.5
v 5.96046e-008 0.3 -0.5
v 0.1 0.3 -0.5
v 0.2 0.3 -0.5
v 0.3 0.3 -0.5
v -0.1 0.3 -0.6
v 5.96046e-008 0.3 -0.6
v 0.1 0.3 -0.6
v -0.1 0.3 -0.7
v 5.96046e-008 0.3 -0.7
v 0.1 0.3 -0.7
v 0.2 0.3 -0.7
v -0.3 0.3 -0.8
v -0.2 0.3 -0.8
v 5.96046e-008 0.3 -0.8
v 0.1 0.3 -0.8
v -0.4 0.3 -0.9
v -0.1 0.3 -0.9
v -0.8 0.4 0.8
v 0.5 0.4 0.8
v -0.4 0.4 0.7
v -0.1 0.4 0.7
v -0.1 0.4 0.1
v 5.96046e-008 0.4 0.1
v 5.96046e-008 0.4 -5.96046e-008
v 0.1 0.4 -5.96046e-008
v 0.1 0.4 -0.2
v 0.2 0.4 -0.2
v 0.2 0.4 -0.3
v 0.3 0.4 -0.3
v 0.2 0.4 -0.5
v 0.3 0.4 -0.5
v -0.1 0.4 -0.7
v 5.96046e-008 0.4 -0.7
v 0.1 0.4 -0.7
v 0.2 0.4 -0.7
v 5.96046e-008 0.4 -0.8
v 0.1 0.4 -0.8
v -0.4 0.4 -0.9
v -0.1 0.4 -0.9
v -0.8 0.4 -1
v 0.5 0.4 -1

# faces
f 3/2/1 2/2/1 1/2/1
f 4/2/1 2/2/1 3/2/1
f 9/2/1 6/2/1 5/2/1
f 10/2/1 6/2/1 9/2/1
f 11/2/1 8/2/1 7/2/1
f 12/2/1 8/2/1 11/2/1
f 15/2/1 14/2/1 13/2/1
f 16/2/1 14/2/1 15/2/1
f 21/2/1 18/2/1 17/2/1
f 22/2/1 18/2/1 21/2/1
f 23/2/1 20/2/1 19/2/1
f 24/2/1 20/2/1 23/2/1
f 29/2/1 26/2/1 25/2/1
f 30/2/1 26/2/1 29/2/1
f 31/2/1 28/2/1 27/2/1
f 32/2/1 28/2/1 31/2/1
f 35/2/1 34/2/1 33/2/1
f 36/2/1 34/2/1 35/2/1
f 37/2/2 38/2/2 39/2/2
f 39/2/2 38/2/2 40/2/2
f 41/2/2 42/2/2 43/2/2
f 43/2/2 42/2/2 44/2/2
f 45/2/2 46/2/2 47/2/2
f 47/2/2 46/2/2 48/2/2
f 51/2/3 50/2/3 49/2/3
f 52/2/3 50/2/3 51/2/3
f 55/2/3 54/2/3 53/2/3
f 56/2/3 54/2/3 55/2/3
f 59/2/3 58/2/3 57/2/3
f 60/2/3 58/2/3 59/2/3
f 63/2/3 62/2/3 61/2/3
f 64/2/3 62/2/3 63/2/3
f 67/2/3 66/2/3 65/2/3
f 68/2/3 66/2/3 67/2/3
f 71/2/3 70/2/3 69/2/3
f 72/2/3 70/2/3 71/2/3
f 73/2/4 74/2/4 75/2/4
f 75/2/4 74/2/4 76/2/4
f 77/2/4 78/2/4 79/2/4
f 79/2/4 78/2/4 80/2/4
f 81/2/4 82/2/4 83/2/4
f 83/2/4 82/2/4 84/2/4
f 85/2/4 86/2/4 87/2/4
f 87/2/4 86/2/4 88/2/4
f 89/2/4 90/2/4 91/2/4
f 91/2/4 90/2/4 92/2/4
f 93/2/4 94/2/4 95/2/4
f 95/2/4 94/2/4 96/2/4
f 99/2/5 98/2/5 97/2/5
f 100/2/5 98/2/5 99/2/5
f 101/1/5 100/1/5 99/1/5
f 101/2/5 98/2/5 100/2/5
f 102/2/5 98/2/5 101/2/5
f 103/1/5 101/1/5 99/1/5
f 103/1/5 102/1/5 101/1/5
f 104/1/5 102/1/5 103/1/5
f 105/2/5 104/2/5 103/2/5
f 105/1/5 102/1/5 104/1/5
f 106/2/5 98/2/5 102/2/5
f 106/1/5 102/1/5 105/1/5
f 107/2/5 98/2/5 106/2/5
f 108/2/5 105/2/5 103/2/5
f 108/1/5 103/1/5 99/1/5
f 108/2/5 106/2/5 105/2/5
f 109/2/5 106/2/5 108/2/5
f 110/1/5 107/1/5 106/1/5
f 110/2/5 106/2/5 109/2/5
f 111/2/5 98/2/5 107/2/5
f 111/1/5 107/1/5 110/1/5
f 112/2/5 98/2/5 111/2/5
f 113/1/5 109/1/5 108/1/5
f 113/1/5 108/1/5 99/1/5
f 114/2/5 110/2/5 109/2/5
f 114/1/5 109/1/5 113/1/5
f 114/2/5 111/2/5 110/2/5
f 115/2/5 111/2/5 114/2/5
f 116/1/5 112/1/5 111/1/5
f 116/2/5 111/2/5 115/2/5
f 117/2/5 98/2/5 112/2/5
f 117/1/5 112/1/5 116/1/5
f 118/1/5 115/1/5 114/1/5
f 118/2/5 114/2/5 113/2/5
f 119/2/5 116/2/5 115/2/5
f 119/1/5 115/1/5 118/1/5
f 119/2/5 117/2/5 116/2/5
f 120/2/5 117/2/5 119/2/5
f 121/2/5 119/2/5 118/2/5
f 121/1/5 120/1/5 119/1/5
f 122/2/5 117/2/5 120/2/5
f 122/1/5 120/1/5 121/1/5
f 123/2/5 99/2/5 97/2/5
f 123/1/5 113/1/5 99/1/5
f 124/2/5 122/2/5 121/2/5
f 124/1/5 113/1/5 123/1/5
f 124/2/5 118/2/5 113/2/5
f 124/2/5 121/2/5 118/2/5
f 125/2/5 123/2/5 97/2/5
f 125/2/5 124/2/5 123/2/5
f 126/2/5 117/2/5 122/2/5
f 126/2/5 124/2/5 125/2/5
f 126/2/5 122/2/5 124/2/5
f 126/2/5 98/2/5 117/2/5
f 127/3/6 128/3/6 129/3/6
f 129/3/6 128/3/6 130/3/6
f 130/3/6 128/3/6 131/3/6
f 129/2/6 130/2/6 133/2/6
f 131/3/6 132/3/6 133/3/6
f 130/3/6 131/3/6 133/3/6
f 133/3/6 132/3/6 134/3/6
f 129/2/6 133/2/6 136/2/6
f 133/2/6 134/2/6 136/2/6
f 136/2/6 134/2/6 137/2/6
f 136/3/6 137/3/6 138/3/6
f 137/2/6 134/2/6 138/2/6
f 134/3/6 135/3/6 139/3/6
f 138/2/6 134/2/6 139/2/6
f 139/3/6 135/3/6 140/3/6
f 136/3/6 138/3/6 142/3/6
f 129/2/6 136/2/6 142/2/6
f 138/3/6 139/3/6 142/3/6
f 142/3/6 139/3/6 143/3/6
f 139/2/6 140/2/6 144/2/6
f 143/3/6 139/3/6 144/3/6
f 140/3/6 141/3/6 145/3/6
f 144/2/6 140/2/6 145/2/6
f 145/3/6 141/3/6 146/3/6
f 142/2/6 143/2/6 148/2/6
f 129/2/6 142/2/6 148/2/6
f 143/3/6 144/3/6 149/3/6
f 148/2/6 143/2/6 149/2/6
f 144/3/6 145/3/6 149/3/6
f 149/3/6 145/3/6 150/3/6
f 145/2/6 146/2/6 151/2/6
f 150/3/6 145/3/6 151/3/6
f 146/3/6 147/3/6 152/3/6
f 151/2/6 146/2/6 152/2/6
f 152/3/6 147/3/6 153/3/6
f 149/2/6 150/2/6 154/2/6
f 148/3/6 149/3/6 154/3/6
f 150/3/6 151/3/6 155/3/6
f 154/2/6 150/2/6 155/2/6
f 151/3/6 152/3/6 155/3/6
f 155/3/6 152/3/6 156/3/6
f 148/3/6 154/3/6 157/3/6
f 154/3/6 155/3/6 157/3/6
f 155/2/6 156/2/6 158/2/6
f 157/3/6 155/3/6 158/3/6
f 156/3/6 152/3/6 159/3/6
f 158/2/6 156/2/6 159/2/6
f 159/3/6 152/3/6 160/3/6
f 127/3/6 129/3/6 161/3/6
f 129/2/6 148/2/6 161/2/6
f 148/3/6 157/3/6 162/3/6
f 161/2/6 148/2/6 162/2/6
f 158/3/6 159/3/6 163/3/6
f 163/3/6 159/3/6 164/3/6
f 127/3/6 161/3/6 165/3/6
f 161/3/6 162/3/6 165/3/6
f 162/3/6 157/3/6 166/3/6
f 165/3/6 162/3/6 166/3/6
f 167/2/6 168/2/6 169/2/6
f 169/2/6 168/2/6 170/2/6
f 170/2/6 168/2/6 171/2/6
f 171/2/6 168/2/6 172/2/6
f 172/2/6 168/2/6 173/2/6
f 173/2/6 168/2/6 174/2/6
f 174/2/6 168/2/6 175/2/6
f 175/2/6 168/2/6 176/2/6
f 176/2/6 168/2/6 177/2/6
f 177/2/6 168/2/6 178/2/6
f 178/2/6 168/2/6 180/2/6
f 179/2/6 180/2/6 184/2/6
f 181/2/6 182/2/6 185/2/6
f 183/2/6 184/2/6 186/2/6
f 167/2/6 169/2/6 187/2/6
f 185/2/6 186/2/6 188/2/6
f 181/2/6 185/2/6 188/2/6
f 167/2/6 187/2/6 189/2/6
f 187/2/6 188/2/6 189/2/6
f 188/2/6 186/2/6 190/2/6
f 189/2/6 188/2/6 190/2/6
f 180/2/6 168/2/6 190/2/6
f 186/2/6 184/2/6 190/2/6
f 184/2/6 180/2/6 190/2/6
